<?xml version="1.0" encoding="UTF-8" standalone="no"?>
<svg
   xmlns:dc="http://purl.org/dc/elements/1.1/"
   xmlns:cc="http://creativecommons.org/ns#"
   xmlns:rdf="http://www.w3.org/1999/02/22-rdf-syntax-ns#"
   xmlns:svg="http://www.w3.org/2000/svg"
   xmlns="http://www.w3.org/2000/svg"
   xmlns:sodipodi="http://sodipodi.sourceforge.net/DTD/sodipodi-0.dtd"
   xmlns:inkscape="http://www.inkscape.org/namespaces/inkscape"
   id="emoji"
   viewBox="0 0 55 55"
   version="1.1"
   sodipodi:docname="1F61C.svg"
   inkscape:version="0.92.3 (2405546, 2018-03-11)"
   width="55"
   height="55">
  <metadata
     id="metadata4610">
    <rdf:RDF>
      <cc:Work
         rdf:about="">
        <dc:format>image/svg+xml</dc:format>
        <dc:type
           rdf:resource="http://purl.org/dc/dcmitype/StillImage" />
        <dc:title></dc:title>
      </cc:Work>
    </rdf:RDF>
  </metadata>
  <defs
     id="defs4608" />
  <sodipodi:namedview
     pagecolor="#ffffff"
     bordercolor="#666666"
     borderopacity="1"
     objecttolerance="10"
     gridtolerance="10"
     guidetolerance="10"
     inkscape:pageopacity="0"
     inkscape:pageshadow="2"
     inkscape:window-width="1366"
     inkscape:window-height="745"
     id="namedview4606"
     showgrid="false"
     inkscape:zoom="9.5066578"
     inkscape:cx="11.99177"
     inkscape:cy="28.60338"
     inkscape:window-x="0"
     inkscape:window-y="0"
     inkscape:window-maximized="1"
     inkscape:current-layer="emoji" />
  <g
     id="color"
     transform="matrix(1.1268791,0,0,1.1268791,-12.889953,-13.071057)">
    <path
       d="m 36.2002,13.3163 c -12.5719,0 -22.7998,10.2279 -22.7998,22.7998 0,12.5718 10.2279,22.7998 22.7998,22.7998 C 48.772,58.9159 59,48.6879 59,36.1161 59,23.5442 48.772,13.3163 36.2002,13.3163 Z"
       id="path4584"
       inkscape:connector-curvature="0"
       style="fill:#fcea2b;stroke:none" />
    <path
       d="m 41.7481,45.5925 c 2.018,-1.0892 3.6277,-2.7511 4.4969,-4.7746 -1.9847,0.9853 -6.1585,1.5931 -10.5745,1.5426 -4.0546,-0.0464 -7.7116,-0.6408 -9.5171,-1.5426 h -0.2385 c 0.939,2.1647 2.7178,3.8986 4.9168,4.9729"
       id="path4586"
       inkscape:connector-curvature="0"
       style="fill:#ffffff;stroke:none" />
    <path
       d="m 41.6571,41.818 c 0,6.0751 -2.5324,11 -5.6562,11 -3.1239,0 -5.6563,-4.9249 -5.6563,-11"
       id="path4588"
       inkscape:connector-curvature="0"
       style="fill:#ea5a47;stroke:none" />
  </g>
  <g
     id="hair"
     transform="translate(0,-17)" />
  <g
     id="skin"
     transform="translate(0,-17)" />
  <g
     id="skin-shadow"
     transform="translate(0,-17)" />
  <g
     id="line"
     transform="matrix(1.1268791,0,0,1.1268791,-12.889953,-13.071057)">
    <circle
       stroke-miterlimit="10"
       cx="36"
       cy="36"
       r="23"
       id="circle4594"
       style="fill:none;stroke:#000000;stroke-width:2;stroke-miterlimit:10" />
    <path
       d="m 30.3173,30.9252 c 0,1.6568 -1.3448,3 -3,3 -1.6553,0 -3,-1.3433 -3,-3 0,-1.6552 1.3447,-3 3,-3 1.6552,0 3,1.3448 3,3"
       id="path4596"
       inkscape:connector-curvature="0"
       style="fill:#000000;stroke:none" />
    <path
       stroke-miterlimit="10"
       d="m 40,31.7253 c 0.4132,-0.344 2.2456,-1.7915 4.9091,-1.6364 2.1608,0.1259 3.61,1.2333 4.0909,1.6364"
       id="path4598"
       inkscape:connector-curvature="0"
       style="fill:none;stroke:#000000;stroke-width:2;stroke-linecap:round;stroke-linejoin:round;stroke-miterlimit:10" />
    <path
       stroke-miterlimit="10"
       d="m 30.8317,45.7908 c -2.199,-1.0742 -3.9778,-2.8081 -4.9168,-4.9729 m 4.9168,4.9729 m 10.3486,0.088 m 0.5678,-0.2863 M 46.245,40.818 c -0.8692,2.0234 -2.4789,3.6854 -4.4969,4.7746 M 26.1534,40.818 c 1.8055,0.9018 5.4625,1.4962 9.5171,1.5426 4.4161,0.0505 8.5899,-0.5572 10.5745,-1.5426"
       id="path4600"
       inkscape:connector-curvature="0"
       style="fill:none;stroke:#000000;stroke-width:2;stroke-linecap:round;stroke-linejoin:round;stroke-miterlimit:10" />
    <path
       stroke-miterlimit="10"
       d="m 41.7397,41.818 c 0,6.0751 -2.5324,11 -5.6562,11 -3.1238,0 -5.6563,-4.9249 -5.6563,-11"
       id="path4602"
       inkscape:connector-curvature="0"
       style="fill:none;stroke:#000000;stroke-width:2;stroke-miterlimit:10" />
  </g>
</svg>
